<svg id="Group_238701" data-name="Group 238701" xmlns="http://www.w3.org/2000/svg" xmlns:xlink="http://www.w3.org/1999/xlink" width="52.082" height="30" viewBox="0 0 52.082 30">
  <defs>
    <clipPath id="clip-path">
      <rect id="Rectangle_20426" data-name="Rectangle 20426" width="52.082" height="30" fill="#0968ac"/>
    </clipPath>
  </defs>
  <g id="Group_192846" data-name="Group 192846" clip-path="url(#clip-path)">
    <path id="Path_121276" data-name="Path 121276" d="M45.386,30a6.924,6.924,0,0,1-6.562-4.795c-1.029-2.843-1.638-5.835-2.465-8.752-.727-2.567-1.488-5.125-2.264-7.677a5.365,5.365,0,0,0-.661-1.361c-.632-.962-1.293-.982-1.9.016a8.459,8.459,0,0,0-.968,2.276c-.965,3.788-1.71,7.641-2.86,11.371a19.456,19.456,0,0,1-2.935,5.731c-2.407,3.247-6.114,3.424-8.738.367a28.274,28.274,0,0,1-3.511-5.886c-.86-1.723-1.357-3.623-2.159-5.38a7.279,7.279,0,0,0-1.527-1.659c-.5.555-1.23,1.031-1.445,1.679C6.7,18.017,6.179,20.164,5.627,22.3a2.776,2.776,0,0,1-3.3,2.218,2.681,2.681,0,0,1-2.289-3.1c.6-3.648,1.453-7.233,3.608-10.345C5.7,8.109,8.107,7.142,10.84,8.512a7.828,7.828,0,0,1,3.166,2.947c1.533,2.717,2.711,5.633,4.045,8.462a18.831,18.831,0,0,0,1.2,2.327c.683,1.042,1.451,1.092,1.987-.009a29.986,29.986,0,0,0,1.547-4.4c1.3-4.263,2.532-8.548,3.878-12.8A9.7,9.7,0,0,1,28.128,2.4a5.159,5.159,0,0,1,8.248-.619A13.149,13.149,0,0,1,39.2,6.592c1.466,4.5,2.614,9.106,3.923,13.659a15.34,15.34,0,0,0,1.04,2.7c.884,1.742,1.6,1.845,3.076.565,1.809-1.566,4.052-1.251,4.716.815A3.289,3.289,0,0,1,51.6,27a7.659,7.659,0,0,1-6.21,3" transform="translate(0 0)" fill="#0968ac"/>
  </g>
</svg>
