<svg xmlns="http://www.w3.org/2000/svg" width="70" height="70" viewBox="0 0 70 70">
  <g id="Group_238421" data-name="Group 238421" transform="translate(-1404 -302)">
    <rect id="Rectangle_20559" data-name="Rectangle 20559" width="70" height="70" rx="5" transform="translate(1404 302)" fill="#ffd9d5"/>
    <g id="Group_238397" data-name="Group 238397" transform="translate(1417.582 290.167)">
      <path id="Path_264816" data-name="Path 264816" d="M41.327,55.263h-1.66V49.155a5.333,5.333,0,0,0-5.4-4.961h-11.2V38.659h2.583A2.957,2.957,0,0,0,28.6,35.707V29.619a2.957,2.957,0,0,0-2.952-2.952H18.634a2.957,2.957,0,0,0-2.952,2.952v6.088a2.957,2.957,0,0,0,2.952,2.952h2.583v5.535h-11.2a5.333,5.333,0,0,0-5.4,4.961v6.109H2.952A2.958,2.958,0,0,0,0,58.215v5.166a2.957,2.957,0,0,0,2.952,2.952H8.118a2.957,2.957,0,0,0,2.952-2.952V58.215a2.957,2.957,0,0,0-2.952-2.952H6.457V49.155c0-1.784,1.878-3.116,3.558-3.116h11.2v9.225h-1.66A2.957,2.957,0,0,0,16.6,58.215v5.166a2.957,2.957,0,0,0,2.952,2.952h5.166a2.957,2.957,0,0,0,2.952-2.952V58.215a2.957,2.957,0,0,0-2.952-2.952h-1.66V46.039h11.2c1.68,0,3.558,1.332,3.558,3.116v6.109H36.16a2.957,2.957,0,0,0-2.952,2.952v5.166a2.957,2.957,0,0,0,2.952,2.952h5.166a2.957,2.957,0,0,0,2.952-2.952V58.215a2.957,2.957,0,0,0-2.952-2.952ZM8.118,57.108a1.107,1.107,0,0,1,1.107,1.107v5.166a1.107,1.107,0,0,1-1.107,1.107H2.952a1.107,1.107,0,0,1-1.107-1.107V58.215a1.107,1.107,0,0,1,1.107-1.107Zm16.6,0a1.107,1.107,0,0,1,1.107,1.107v5.166a1.107,1.107,0,0,1-1.107,1.107H19.556a1.107,1.107,0,0,1-1.107-1.107V58.215a1.107,1.107,0,0,1,1.107-1.107ZM18.634,36.814a1.107,1.107,0,0,1-1.107-1.107V29.619a1.107,1.107,0,0,1,1.107-1.107h7.011a1.107,1.107,0,0,1,1.107,1.107v6.088a1.107,1.107,0,0,1-1.107,1.107Zm23.8,26.567a1.107,1.107,0,0,1-1.107,1.107H36.161a1.107,1.107,0,0,1-1.107-1.107V58.215a1.107,1.107,0,0,1,1.107-1.107h5.166a1.107,1.107,0,0,1,1.107,1.107Z" transform="translate(0 0)" fill="#444649" stroke="#444649" stroke-width="1"/>
    </g>
  </g>
</svg>
