<svg xmlns="http://www.w3.org/2000/svg" width="142.668" height="27.905" viewBox="0 0 142.668 27.905">
  <g id="Group_238195" data-name="Group 238195" transform="translate(1269.795 -515.56)">
    <path id="Path_121277" data-name="Path 121277" d="M2.79-17.568v-18.75h4.8v2.155a5.745,5.745,0,0,1,2.419-1.966,7.675,7.675,0,0,1,3.1-.643,8.94,8.94,0,0,1,3.95.888A6.334,6.334,0,0,1,19.914-33.1a6.78,6.78,0,0,1,2.627-2.7,7.283,7.283,0,0,1,3.686-.964,8.549,8.549,0,0,1,3.912.888,6.524,6.524,0,0,1,2.778,2.7,9.151,9.151,0,0,1,1.021,4.536v11.076h-4.8v-10.4a5.155,5.155,0,0,0-1.021-3.364,3.817,3.817,0,0,0-3.138-1.247,3.885,3.885,0,0,0-3.138,1.247,5.03,5.03,0,0,0-1.058,3.364v10.4h-4.8v-10.4a4.957,4.957,0,0,0-1.077-3.383,3.879,3.879,0,0,0-3.081-1.229A4.437,4.437,0,0,0,8.857-31.5a4.407,4.407,0,0,0-1.266,3.534v10.4ZM46-17.114A9.677,9.677,0,0,1,40.913-18.4,8.8,8.8,0,0,1,37.6-21.916a10.643,10.643,0,0,1-1.172-5.028,10.557,10.557,0,0,1,1.21-5.179A8.7,8.7,0,0,1,41-35.544a9.9,9.9,0,0,1,5-1.227,9.627,9.627,0,0,1,4.9,1.21,8.688,8.688,0,0,1,3.289,3.327,9.776,9.776,0,0,1,1.191,4.876q0,.491-.038.964t-.113.888H41.31a5.468,5.468,0,0,0,.7,2.325,4.079,4.079,0,0,0,1.588,1.55,4.686,4.686,0,0,0,2.287.548,4.43,4.43,0,0,0,2.287-.567A3.928,3.928,0,0,0,49.7-23.39h5.179a9.377,9.377,0,0,1-1.7,3.1,8.6,8.6,0,0,1-2.967,2.306,9.572,9.572,0,0,1-4.212.87ZM41.348-28.72h9.035A3.755,3.755,0,0,0,49-31.706a4.837,4.837,0,0,0-3.156-1.1,4.779,4.779,0,0,0-2.873.964,4.4,4.4,0,0,0-1.623,3.122ZM64.974-17.568a6.329,6.329,0,0,1-4.555-1.474,5.872,5.872,0,0,1-1.531-4.423v-8.808h-2.42v-4.045h2.419v-4.574h4.839v4.574H68v4.045H63.726v8.846a1.606,1.606,0,0,0,.567,1.436,2.611,2.611,0,0,0,1.474.378H68v4.045Zm14.554.454a10.215,10.215,0,0,1-5.047-1.229A8.781,8.781,0,0,1,71.022-21.8a10.353,10.353,0,0,1-1.247-5.141,9.972,9.972,0,0,1,1.342-5.273,9,9,0,0,1,3.59-3.386,10.594,10.594,0,0,1,4.971-1.172,10.323,10.323,0,0,1,5.065,1.229,9.217,9.217,0,0,1,3.534,3.421,9.943,9.943,0,0,1,1.3,5.179A9.96,9.96,0,0,1,88.3-21.877a9.237,9.237,0,0,1-3.534,3.5,10.492,10.492,0,0,1-5.239,1.263Zm.076-4.2a4.488,4.488,0,0,0,2.627-.775,5.362,5.362,0,0,0,1.758-2.079,6.368,6.368,0,0,0,.643-2.854,6.1,6.1,0,0,0-.7-3.024,4.818,4.818,0,0,0-1.833-1.89,4.973,4.973,0,0,0-2.495-.643,4.676,4.676,0,0,0-2.589.718,4.853,4.853,0,0,0-1.739,1.985,6.551,6.551,0,0,0-.624,2.93A6.352,6.352,0,0,0,75.314-24a4.908,4.908,0,0,0,1.8,1.985,4.661,4.661,0,0,0,2.486.7Zm12.588,3.742V-44.029h4.839v26.461Zm10.887-21.169a3.018,3.018,0,0,1-2.211-.926,3.018,3.018,0,0,1-.926-2.211,3,3,0,0,1,.926-2.23,3.05,3.05,0,0,1,2.211-.907,3.032,3.032,0,0,1,2.23.907,3.032,3.032,0,0,1,.907,2.23,3.05,3.05,0,0,1-.907,2.211,3,3,0,0,1-2.232.93ZM100.66-17.572v-18.75h4.84v18.75Zm15.725.454a7.756,7.756,0,0,1-4.12-1.04,6.854,6.854,0,0,1-2.608-2.873,9.3,9.3,0,0,1-.907-4.177v-11.11h4.8v10.4a5.215,5.215,0,0,0,1.077,3.4,3.833,3.833,0,0,0,3.156,1.323A3.921,3.921,0,0,0,121-22.482a5.244,5.244,0,0,0,1.058-3.44v-10.4H126.9v18.75h-4.839v-2.192a6.067,6.067,0,0,1-2.476,1.966,7.782,7.782,0,0,1-3.2.684Zm21.585,0a10.179,10.179,0,0,1-3.97-.771,7.769,7.769,0,0,1-3.043-2.211,5.654,5.654,0,0,1-1.3-3.364H134.5a2.694,2.694,0,0,0,1.191,1.89,3.912,3.912,0,0,0,2.249.68,4.3,4.3,0,0,0,1.985-.473,1.569,1.569,0,0,0,.926-1.493,1.423,1.423,0,0,0-.68-1.247,5.74,5.74,0,0,0-1.588-.718q-.907-.265-1.663-.454a24.6,24.6,0,0,1-3.44-1.077,5.953,5.953,0,0,1-2.457-1.739,4.559,4.559,0,0,1-.907-2.967,4.773,4.773,0,0,1,1.04-3.1,6.43,6.43,0,0,1,2.76-1.947,10.285,10.285,0,0,1,3.723-.662,8.675,8.675,0,0,1,5.292,1.588,5.935,5.935,0,0,1,2.344,4.687H140.69a2.389,2.389,0,0,0-1-1.833,3.754,3.754,0,0,0-2.211-.624,4.52,4.52,0,0,0-1.89.378,1.428,1.428,0,0,0-.832,1.436,1.437,1.437,0,0,0,.68,1.229,5.7,5.7,0,0,0,1.625.756q.945.284,1.663.473a22.741,22.741,0,0,1,3.459,1.134,5.937,5.937,0,0,1,2.363,1.739,4.779,4.779,0,0,1,.907,2.949,4.829,4.829,0,0,1-1.04,3.138,6.445,6.445,0,0,1-2.741,1.947,10.134,10.134,0,0,1-3.705.66Z" transform="translate(-1272.585 560.575)" fill="#fff"/>
  </g>
</svg>
