<svg xmlns="http://www.w3.org/2000/svg" width="70" height="70" viewBox="0 0 70 70">
  <g id="Group_238422" data-name="Group 238422" transform="translate(-1404 -480)">
    <rect id="Rectangle_20560" data-name="Rectangle 20560" width="70" height="70" rx="5" transform="translate(1404 480)" fill="#ffe5d1"/>
    <g id="users-group" transform="translate(202 -890)">
      <rect id="Frame" width="50" height="50" transform="translate(1212 1380)" fill="#444649" stroke="rgba(0,0,0,0)" stroke-width="1" opacity="0"/>
      <path id="users-group-2" data-name="users-group" d="M1243.048,1422.875h-14.8c-4.594,0-7.125-2.517-7.125-7.083,0-5.008,2.835-10.856,10.825-10.856h7.4c7.99,0,10.825,5.848,10.825,10.856C1250.173,1420.358,1247.642,1422.875,1243.048,1422.875Zm-11.1-14.815c-7.144,0-7.7,5.917-7.7,7.731,0,2.81,1.161,3.958,4,3.958h14.8c2.84,0,4-1.148,4-3.958,0-1.814-.556-7.731-7.7-7.731Zm3.719-5.994a7.825,7.825,0,1,1,7.827-7.825A7.834,7.834,0,0,1,1235.662,1402.066Zm0-12.525a4.7,4.7,0,1,0,4.7,4.7A4.705,4.705,0,0,0,1235.662,1389.542Zm22.379,14.375c0-4.117-2.552-8.271-8.25-8.271h-2.021a1.563,1.563,0,0,0,0,3.125h2.021c4.627,0,5.125,3.6,5.125,5.146,0,1.8-.644,2.438-2.458,2.438h-.75a1.563,1.563,0,0,0,0,3.125h.75C1256.006,1409.479,1258.042,1407.452,1258.042,1403.917Zm-9.69-9.615a6.089,6.089,0,0,0-1.227-12.052,5.9,5.9,0,0,0-4.152,1.652,1.562,1.562,0,1,0,2.179,2.238,2.8,2.8,0,0,1,1.973-.764,2.963,2.963,0,0,1,.608,5.862,1.563,1.563,0,1,0,.619,3.065Zm-27.227,13.615a1.563,1.563,0,0,0-1.562-1.562h-.729c-1.815,0-2.458-.637-2.458-2.437,0-1.548.5-5.146,5.125-5.146h2.063a1.563,1.563,0,0,0,0-3.125H1221.5c-6.09,0-8.25,4.456-8.25,8.271,0,3.536,2.036,5.563,5.583,5.563h.729A1.563,1.563,0,0,0,1221.125,1407.917Zm3.7-14.837a1.564,1.564,0,0,0-1.223-1.842,2.961,2.961,0,0,1,.606-5.862,2.888,2.888,0,0,1,1.991.781,1.561,1.561,0,0,0,2.144-2.271,5.99,5.99,0,0,0-4.135-1.635,6.086,6.086,0,0,0-1.225,12.052,1.562,1.562,0,0,0,1.842-1.223Z" transform="translate(1.354 2.438)" fill="#444649" stroke="rgba(0,0,0,0)" stroke-width="1"/>
    </g>
  </g>
</svg>
