<svg xmlns="http://www.w3.org/2000/svg" xmlns:xlink="http://www.w3.org/1999/xlink" width="53.009" height="47.678" viewBox="0 0 53.009 47.678">
  <defs>
    <linearGradient id="linear-gradient" x1="0.024" y1="0.745" x2="0.903" y2="0.732" gradientUnits="objectBoundingBox">
      <stop offset="0" stop-color="#48b3ff"/>
      <stop offset="1" stop-color="#0968ac"/>
    </linearGradient>
    <linearGradient id="linear-gradient-2" x1="0.024" y1="0.745" x2="0.648" y2="0.33" xlink:href="#linear-gradient"/>
  </defs>
  <g id="Group_239448" data-name="Group 239448" transform="translate(-1511.497 -237.502)">
    <g id="Group_239306" data-name="Group 239306" transform="translate(1512 238.002)">
      <path id="Path_265028" data-name="Path 265028" d="M820.7,281.155a.977.977,0,0,1-.666-.657l-7.795-25.8a.978.978,0,0,1,1.872-.566l7.795,25.8a.978.978,0,0,1-1.206,1.223" transform="translate(-792.69 -245.749)" stroke="rgba(0,0,0,0)" stroke-miterlimit="10" stroke-width="1" fill="url(#linear-gradient)"/>
      <path id="Path_265029" data-name="Path 265029" d="M872.006,544.053A3.822,3.822,0,0,0,870,543.48a3.881,3.881,0,0,0-.895.105,3.845,3.845,0,1,0,2.906.468" transform="translate(-844.198 -521.189)" fill="#fff"/>
      <path id="Path_265075" data-name="Path 265075" d="M873.715,544.221a4.935,4.935,0,0,0-2.6-.741,5,5,0,0,0-1.156.136,4.966,4.966,0,1,0,3.752.6" transform="translate(-845.319 -522.311)" fill="#fff"/>
      <path id="Path_265030" data-name="Path 265030" d="M855.887,526.89a5.3,5.3,0,1,0-5.17,6.531,5.335,5.335,0,0,0,1.234-.145,5.3,5.3,0,0,0,3.936-6.385m-1.172,3.683a4.686,4.686,0,1,1-1.53-6.448,4.685,4.685,0,0,1,1.53,6.448" transform="translate(-824.936 -501.977)" fill="#0968ac"/>
      <path id="Path_265031" data-name="Path 265031" d="M862.554,533.8a4.43,4.43,0,1,0,1.446,6.1,4.429,4.429,0,0,0-1.446-6.1m.949,5.789a3.845,3.845,0,1,1-4.161-5.759,3.879,3.879,0,0,1,.895-.105,3.847,3.847,0,0,1,3.266,5.865" transform="translate(-834.439 -511.43)" fill="#43adf8"/>
      <path id="Union_4" data-name="Union 4" d="M9.073,45.736l2.9-3.373c.244.209.494.416.748.614l-2.743,3.5C9.67,46.236,9.366,45.988,9.073,45.736ZM39.406,42.88c.252-.2.5-.407.744-.618l2.918,3.352c-.292.253-.592.5-.9.745ZM7.925,44.689l3.089-3.195c.233.224.472.445.711.657L8.78,45.481C8.492,45.226,8.2,44.961,7.925,44.689Zm32.466-2.641c.239-.214.476-.437.705-.661l3.113,3.172c-.276.27-.562.538-.85.8ZM6.84,43.576l3.275-3.005c.216.237.442.472.67.7L7.648,44.417C7.374,44.144,7.1,43.862,6.84,43.576ZM41.325,41.16c.224-.227.448-.464.664-.7l3.3,2.982c-.262.288-.531.574-.8.847ZM5.824,42.4,9.272,39.6c.2.248.413.5.626.736L6.58,43.288C6.323,43,6.068,42.7,5.824,42.4ZM42.2,40.215c.211-.24.42-.49.622-.741l3.467,2.781c-.243.3-.5.6-.749.893Zm-37.323.954,3.607-2.6c.187.26.383.519.582.771L5.582,42.1C5.343,41.8,5.107,41.482,4.881,41.169Zm38.145-1.948c.2-.253.391-.514.576-.776l3.627,2.568c-.224.317-.458.632-.7.937Zm-39.014.66,3.756-2.376c.171.27.351.54.534.8L4.657,40.851C4.435,40.533,4.218,40.206,4.012,39.881Zm39.775-1.7c.182-.264.36-.537.53-.81l3.774,2.348c-.2.328-.419.657-.639.977Zm-40.566.366L7.114,36.4c.154.28.318.562.485.835L3.807,39.551C3.606,39.222,3.409,38.884,3.222,38.546Zm41.264-1.451c.165-.274.327-.557.481-.84l3.907,2.117c-.186.343-.38.684-.58,1.015Zm-41.972.071,4.013-1.911c.138.289.284.579.434.861l-3.923,2.09C2.856,37.863,2.68,37.514,2.513,37.165Zm42.6-1.2c.148-.284.293-.575.428-.867l4.028,1.878c-.164.353-.338.705-.517,1.048Zm-43.23-.224,4.121-1.667c.12.3.248.594.382.885l-4.041,1.85C2.189,36.463,2.033,36.1,1.888,35.745Zm43.792-.936c.132-.3.259-.595.376-.893l4.133,1.633c-.142.36-.294.722-.453,1.076ZM1.349,34.286,5.561,32.87c.1.3.213.61.329.909l-4.145,1.6C1.606,35.021,1.472,34.652,1.349,34.286Zm44.823-.671c.114-.3.222-.609.322-.914l4.225,1.38c-.121.369-.252.739-.388,1.1ZM.9,32.8l4.291-1.159c.083.31.175.622.272.927L1.227,33.917C1.11,33.548,1,33.171.9,32.8Zm45.694-.4c.095-.305.183-.617.264-.928l4.3,1.122c-.1.376-.206.754-.32,1.123ZM.537,31.285l4.353-.9c.065.314.138.631.216.942L.8,32.421C.7,32.046.616,31.665.537,31.285Zm46.4-.133c.076-.31.147-.628.208-.943l4.36.863c-.075.38-.159.764-.252,1.139ZM.27,29.752l4.4-.637c.047.318.1.639.161.953L.462,30.9C.389,30.523.324,30.136.27,29.752Zm46.936.139c.058-.314.109-.634.151-.953l4.4.6c-.052.385-.114.772-.183,1.153ZM.092,28.208l4.43-.373c.026.32.062.642.1.961l-4.408.571C.167,28.984.125,28.593.092,28.208Zm47.306.41c.039-.318.071-.641.1-.962l4.431.337c-.03.386-.067.776-.114,1.16ZM.009,26.658l4.442-.111c.008.323.024.647.046.967l-4.434.306C.036,27.437.018,27.045.009,26.658Zm47.507.676c.019-.321.032-.647.038-.967L52,26.441c-.007.385-.023.777-.046,1.163ZM0,25.852v-.12c0-.21.006-.418.014-.626l4.442.15c-.007.174-.01.347-.013.52v.1q0,.174,0,.349L0,26.271C0,26.132,0,25.991,0,25.852Zm47.554.192c0-.322,0-.648-.018-.968l4.44-.187c.016.385.024.777.024,1.164ZM.032,24.718c.018-.386.047-.777.082-1.162l4.425.412c-.03.32-.052.645-.068.966Zm47.413-.93,4.42-.449c.04.384.071.774.092,1.161l-4.436.253C47.5,24.432,47.477,24.108,47.445,23.789ZM.152,23.169c.042-.385.093-.774.151-1.156L4.7,22.69c-.049.317-.091.639-.125.959Zm47.123-.657,4.387-.714c.062.38.116.769.162,1.155l-4.415.517C47.372,23.148,47.326,22.827,47.275,22.512ZM.366,21.629c.065-.382.139-.768.221-1.146l4.344.94c-.068.312-.13.632-.183.949Zm46.665-.383,4.336-.975c.084.377.162.762.23,1.143l-4.376.779C47.166,21.879,47.1,21.56,47.031,21.247ZM.672,20.105c.088-.377.185-.757.289-1.131l4.28,1.2c-.087.31-.167.624-.24.936ZM46.71,20l4.27-1.235c.107.374.208.753.3,1.128l-4.32,1.041C46.883,20.622,46.8,20.308,46.71,20ZM1.069,18.6c.109-.373.23-.746.357-1.111l4.2,1.455c-.1.3-.2.61-.3.919Zm45.246.173L50.5,17.285c.13.365.253.738.366,1.107l-4.25,1.3C46.526,19.385,46.423,19.077,46.315,18.774ZM1.555,17.122c.133-.365.276-.731.425-1.09l4.1,1.705c-.123.3-.241.6-.351.9Zm44.292.453,4.091-1.737c.15.355.3.717.431,1.08l-4.164,1.554C46.094,18.171,45.973,17.871,45.848,17.576Zm-43.716-1.9c.155-.355.319-.712.489-1.062L6.615,16.56c-.141.289-.277.585-.4.879Zm43.178.737,3.979-1.981c.172.345.338.7.5,1.054l-4.064,1.8C45.59,16.989,45.453,16.7,45.31,16.409ZM2.795,14.261c.175-.345.36-.692.551-1.029l3.87,2.184c-.158.281-.312.567-.458.855ZM44.7,15.276l3.853-2.214c.192.334.38.678.558,1.022l-3.949,2.04C45.019,15.839,44.863,15.552,44.7,15.276ZM3.54,12.9c.195-.333.4-.669.612-.994l3.733,2.412c-.175.271-.345.548-.507.825Zm40.489,1.283,3.714-2.439c.212.321.419.654.617.987L44.541,15C44.376,14.721,44.2,14.446,44.029,14.179Zm-39.663-2.6c.215-.323.441-.645.67-.956l3.581,2.632c-.19.258-.377.524-.555.792ZM43.29,13.124l3.563-2.657c.233.313.46.632.677.951l-3.68,2.494C43.671,13.648,43.483,13.384,43.29,13.124ZM5.267,10.308c.233-.308.477-.615.724-.912l3.419,2.84c-.205.247-.408.5-.6.758Zm37.221,1.808,3.4-2.865c.248.294.493.6.73.907L43.1,12.869C42.9,12.613,42.7,12.359,42.489,12.115ZM6.244,9.1c.251-.294.513-.585.777-.868l3.244,3.037c-.22.235-.436.477-.646.721Zm35.385,2.057,3.222-3.062c.267.28.53.571.784.862L42.28,11.871C42.069,11.629,41.85,11.387,41.629,11.155ZM7.288,7.948c.27-.279.548-.555.828-.822l3.057,3.227c-.232.22-.462.449-.687.68Zm33.425,2.3L43.749,7c.281.263.562.537.833.813l-3.176,3.11C41.18,10.692,40.947,10.464,40.713,10.246ZM8.4,6.862c.286-.262.58-.522.875-.771l2.861,3.4c-.245.205-.49.422-.727.638ZM39.745,9.394l2.836-3.422c.3.246.593.5.882.763l-2.986,3.293C40.238,9.812,39.992,9.6,39.745,9.394ZM9.574,5.845c.3-.244.607-.484.918-.715l2.654,3.565c-.259.191-.515.392-.763.594ZM38.728,8.6l2.628-3.585c.313.229.624.468.925.711L39.494,9.19C39.245,8.989,38.988,8.791,38.728,8.6ZM10.805,4.9c.313-.226.636-.448.959-.659L14.2,7.957c-.269.175-.536.361-.8.548ZM37.665,7.87l2.409-3.736c.325.21.65.43.966.655L38.466,8.412C38.2,8.226,37.935,8.043,37.665,7.87ZM12.091,4.03c.327-.207.663-.41,1-.6L15.3,7.284c-.277.159-.555.326-.826.5ZM36.56,7.2,38.74,3.33c.337.189.675.39,1,.6L37.392,7.7C37.12,7.526,36.839,7.36,36.56,7.2ZM13.426,3.237c.337-.186.685-.368,1.031-.54l1.976,3.981c-.287.142-.575.294-.854.449ZM35.417,6.6l1.944-4c.349.17.7.35,1.039.535l-2.123,3.9C36,6.893,35.706,6.745,35.417,6.6ZM14.805,2.527c.349-.166.706-.327,1.062-.477L17.6,6.142c-.294.125-.59.258-.879.4ZM34.24,6.074l1.7-4.106c.359.148.719.308,1.07.472L35.125,6.464C34.835,6.328,34.536,6.2,34.24,6.074ZM16.225,1.9c.359-.146.726-.285,1.091-.415L18.8,5.676c-.3.106-.606.222-.9.343ZM33.032,5.617l1.45-4.2c.366.126.735.263,1.1.406L33.941,5.953C33.641,5.835,33.336,5.722,33.032,5.617ZM17.683,1.359c.367-.123.741-.24,1.114-.348l1.229,4.272c-.308.089-.617.185-.921.288ZM31.8,5.233,32.994.952c.374.1.748.217,1.117.338L32.727,5.513C32.421,5.413,32.11,5.319,31.8,5.233ZM19.171.906c.374-.1.754-.2,1.132-.28l.97,4.337c-.313.069-.629.148-.939.232Zm11.38,4.019L31.484.579c.378.082.76.173,1.134.271l-1.128,4.3C31.18,5.068,30.863,4.992,30.551,4.925ZM20.684.544c.379-.08.765-.15,1.147-.212l.707,4.387c-.316.051-.636.111-.95.176Zm8.6,4.149L29.955.3c.383.058.769.126,1.148.2L30.237,4.86C29.921,4.8,29.6,4.741,29.283,4.693ZM22.215.273c.384-.056.772-.1,1.157-.142l.444,4.422c-.319.033-.641.071-.959.118ZM28,4.536,28.412.11c.385.036.775.081,1.158.134l-.606,4.4C28.647,4.6,28.323,4.565,28,4.536ZM23.759.095c.384-.033.775-.058,1.163-.073l.181,4.44c-.322.014-.647.034-.966.061Zm2.958,4.361L26.862.014c.386.011.778.033,1.163.063l-.342,4.432C27.363,4.484,27.038,4.467,26.717,4.456ZM25.309.008C25.588,0,25.871,0,26.15,0h.118l.2,0L26.4,4.448l-.173,0h-.1c-.232,0-.467,0-.7.008Z" transform="translate(0 0)" stroke="rgba(0,0,0,0)" stroke-miterlimit="10" stroke-width="1" fill="url(#linear-gradient-2)"/>
      <path id="Path_265074" data-name="Path 265074" d="M824.395,269.036a.617.617,0,1,1-.617-.617.617.617,0,0,1,.617.617" transform="translate(-803.293 -260.355)" fill="#fff" stroke="rgba(0,0,0,0)" stroke-miterlimit="10" stroke-width="1"/>
    </g>
  </g>
</svg>
