<svg xmlns="http://www.w3.org/2000/svg" xmlns:xlink="http://www.w3.org/1999/xlink" width="1110" height="497" viewBox="0 0 1110 497">
  <defs>
    <clipPath id="clip-path">
      <rect id="Rectangle_20550" data-name="Rectangle 20550" width="1110" height="497" transform="translate(810 582)" fill="#fff"/>
    </clipPath>
  </defs>
  <g id="Mask_Group_11" data-name="Mask Group 11" transform="translate(-810 -582)" clip-path="url(#clip-path)">
    <path id="Path_264428" data-name="Path 264428" d="M1782.01,1169.77c-125.79,4.97-160.65-101.72-178.26-154.87s-78.6-300.137-120.48-298.485-57.34,141.2-78.74,242.426c-24.67,116.729-78.39,215.239-167.3,218.749s-151.74-113.71-170.32-156.78c-36.32-84.166-55.57-134.754-83.441-133.654-25.286,1-51.214,86.6-60.339,162.134-3.651,30.13-33.112,52.15-65.845,48.9-32.728-3.12-56.332-30.07-52.74-60.21.281-2.33,7-57.632,24.833-114.2,29.993-95.18,82.606-157,139.609-159.25,77.273-3.048,118.833,42.995,162.143,123.555,23.48,43.663,47.83,94.32,48.58,96.3,10.03,19.985,33.01,70.9,53.95,70.065s39.48-35.25,53.28-113.406c.42-2.377,14.02-78.6,37.3-156.544,28.18-94.411,62.11-194.139,147.08-197.492,80.92-3.193,127.63,59.9,153.69,123.815,33.93,83.233,44.98,128.1,92,268.867,11.47,34.33,33.12,81.27,59.02,80.25,14.37-.57,18.93-5.46,35.81-22.26,22.42-22.35,60.19-23.84,84.29-3.33,24.13,20.5,25.5,55.23,3.06,77.57C1855.93,1155.01,1814.85,1168.48,1782.01,1169.77Z" fill="#0968ac" opacity="0.06"/>
  </g>
</svg>
