<svg xmlns="http://www.w3.org/2000/svg" xmlns:xlink="http://www.w3.org/1999/xlink" width="516" height="170" viewBox="0 0 516 170">
  <defs>
    <clipPath id="clip-path">
      <rect id="Rectangle_20561" data-name="Rectangle 20561" width="516" height="170" transform="translate(320 283)" fill="#fff"/>
    </clipPath>
    <clipPath id="clip-path-2">
      <rect id="Rectangle_20580" data-name="Rectangle 20580" width="118" height="94" transform="translate(718 284)" fill="none"/>
    </clipPath>
  </defs>
  <g id="Mask_Group_12" data-name="Mask Group 12" transform="translate(-320 -283)" clip-path="url(#clip-path)">
    <g id="Mask_Group_14" data-name="Mask Group 14" clip-path="url(#clip-path-2)">
      <g id="Group_238393" data-name="Group 238393" transform="translate(701.758 355.44)" opacity="0.3">
        <path id="Path_264804" data-name="Path 264804" d="M70.776-89.431a7.592,7.592,0,0,1,10.635,1.4l45.9,59.816a7.606,7.606,0,0,1-1.387,10.647L83.091,15.37a28.846,28.846,0,0,1-40.423-5.336l-20-26.063A28.907,28.907,0,0,1,27.938-56.5Zm-.272-.354L27.667-56.85a29.321,29.321,0,0,0-5.353,41.093l20,26.063a29.258,29.258,0,0,0,41.047,5.419L126.2-17.21a8.044,8.044,0,0,0,1.468-11.273L81.764-88.3A8.027,8.027,0,0,0,70.5-89.785Z" transform="translate(0 -0.947)" fill="#cdced0"/>
        <path id="Path_264805" data-name="Path 264805" d="M79.312-88.672a15.128,15.128,0,0,1,21.2,2.8L137.232-38.02A15.16,15.16,0,0,1,134.467-16.8L94.233,14.132a24.6,24.6,0,0,1-34.468-4.55L34.583-23.233a24.649,24.649,0,0,1,4.495-34.506Zm-.272-.354L38.806-58.092a25.065,25.065,0,0,0-4.576,35.131L59.412,9.853A25.015,25.015,0,0,0,94.5,14.486L134.743-16.45a15.587,15.587,0,0,0,2.845-21.845L100.864-86.148A15.558,15.558,0,0,0,79.04-89.026Z" transform="translate(-3.035 -0.758)" fill="#cdced0"/>
        <path id="Path_264806" data-name="Path 264806" d="M87.851-87.914a22.655,22.655,0,0,1,31.75,4.191l27.541,35.887A22.7,22.7,0,0,1,143-16.051L105.363,12.886A20.342,20.342,0,0,1,76.857,9.123L46.5-30.439a20.386,20.386,0,0,1,3.718-28.538Zm-.272-.354L49.941-59.331a20.808,20.808,0,0,0-3.8,29.164L76.5,9.395a20.764,20.764,0,0,0,29.132,3.846L143.27-15.694a23.124,23.124,0,0,0,4.222-32.41L119.951-83.992A23.072,23.072,0,0,0,87.58-88.268Z" transform="translate(-6.069 -0.569)" fill="#cdced0"/>
        <path id="Path_264807" data-name="Path 264807" d="M96.389-87.155A30.193,30.193,0,0,1,138.7-81.57L157.06-57.645a30.257,30.257,0,0,1-5.518,42.357L116.506,11.648A16.093,16.093,0,0,1,93.954,8.671L58.412-37.643a16.127,16.127,0,0,1,2.941-22.576Zm-.272-.354L61.081-60.573a16.558,16.558,0,0,0-3.022,23.2L93.6,8.942A16.522,16.522,0,0,0,116.777,12l35.035-26.936a30.667,30.667,0,0,0,5.6-42.982L139.051-81.841A30.6,30.6,0,0,0,96.117-87.509Z" transform="translate(-9.105 -0.379)" fill="#cdced0"/>
        <path id="Path_264808" data-name="Path 264808" d="M104.929-86.4a37.723,37.723,0,0,1,52.863,6.979l9.181,11.962a37.8,37.8,0,0,1-6.894,52.922L127.643,10.4a11.844,11.844,0,0,1-16.6-2.191L70.328-44.846A11.869,11.869,0,0,1,72.493-61.46Zm-.272-.354L72.221-61.814a12.3,12.3,0,0,0-2.246,17.24L110.7,8.491a12.275,12.275,0,0,0,17.221,2.273l32.436-24.938a38.208,38.208,0,0,0,6.975-53.548l-9.186-11.97A38.129,38.129,0,0,0,104.657-86.752Z" transform="translate(-12.14 -0.19)" fill="#cdced0"/>
        <path id="Path_264809" data-name="Path 264809" d="M113.465-85.639a45.258,45.258,0,0,1,63.424,8.373,45.354,45.354,0,0,1-8.271,63.494L138.781,9.167a7.59,7.59,0,0,1-10.635-1.4l-45.9-59.816A7.605,7.605,0,0,1,83.628-62.7Zm-.272-.354L83.357-63.054a8.045,8.045,0,0,0-1.468,11.273l45.9,59.816a8.028,8.028,0,0,0,11.26,1.486l29.837-22.939a45.75,45.75,0,0,0,8.353-64.12A45.654,45.654,0,0,0,113.193-85.993Z" transform="translate(-15.174)" fill="#cdced0"/>
      </g>
    </g>
  </g>
</svg>
