<svg xmlns="http://www.w3.org/2000/svg" xmlns:xlink="http://www.w3.org/1999/xlink" width="516" height="170" viewBox="0 0 516 170">
  <defs>
    <clipPath id="clip-path">
      <rect id="Rectangle_20562" data-name="Rectangle 20562" width="516" height="170" transform="translate(1384 460)" fill="#fff"/>
    </clipPath>
    <clipPath id="clip-path-2">
      <rect id="Rectangle_20581" data-name="Rectangle 20581" width="126" height="111" transform="translate(1774 460)" fill="none"/>
    </clipPath>
  </defs>
  <g id="Mask_Group_13" data-name="Mask Group 13" transform="translate(-1384 -460)" clip-path="url(#clip-path)">
    <g id="Mask_Group_15" data-name="Mask Group 15" clip-path="url(#clip-path-2)">
      <g id="Group_238394" data-name="Group 238394" transform="translate(1741.672 573.953)">
        <path id="Path_264810" data-name="Path 264810" d="M192.1-30.988a9.624,9.624,0,0,1-13.312,2.773L98.869-80.566a9.64,9.64,0,0,1-2.79-13.32l37.492-57.341a36.565,36.565,0,0,1,50.6-10.538l34.824,22.81a36.638,36.638,0,0,1,10.6,50.627Zm.473.31,37.492-57.341A37.162,37.162,0,0,0,219.3-139.428l-34.824-22.811a37.088,37.088,0,0,0-51.379,10.7L95.606-94.2a10.2,10.2,0,0,0,2.954,14.1l79.923,52.352A10.176,10.176,0,0,0,192.576-30.678Z" transform="translate(-18.934 0)" fill="#f0f0f1"/>
        <path id="Path_264811" data-name="Path 264811" d="M181.334-26.677a19.175,19.175,0,0,1-26.53,5.526L90.865-63.033A19.214,19.214,0,0,1,85.3-89.579l35.213-53.857a31.179,31.179,0,0,1,43.143-8.987l43.845,28.72a31.241,31.241,0,0,1,9.042,43.168Zm.473.31,35.214-53.857a31.768,31.768,0,0,0-9.206-43.951L163.97-152.895a31.708,31.708,0,0,0-43.924,9.149L84.828-89.884a19.756,19.756,0,0,0,5.724,27.329l63.939,41.882A19.721,19.721,0,0,0,181.807-26.367Z" transform="translate(-15.144 -3.143)" fill="#f0f0f1"/>
        <path id="Path_264812" data-name="Path 264812" d="M170.571-22.359a28.716,28.716,0,0,1-39.74,8.278L82.88-45.491a28.775,28.775,0,0,1-8.329-39.764l32.942-50.382a25.785,25.785,0,0,1,35.681-7.432l52.86,34.625a25.838,25.838,0,0,1,7.479,35.7Zm.473.31,32.942-50.382a26.373,26.373,0,0,0-7.642-36.485l-52.861-34.626a26.32,26.32,0,0,0-36.463,7.595L74.081-85.57a29.31,29.31,0,0,0,8.493,40.547l47.951,31.409A29.245,29.245,0,0,0,171.044-22.05Z" transform="translate(-11.364 -6.288)" fill="#f0f0f1"/>
        <path id="Path_264813" data-name="Path 264813" d="M159.8-18.049A38.272,38.272,0,0,1,106.844-7.018L74.876-27.957a38.349,38.349,0,0,1-11.1-52.99l30.663-46.9a20.4,20.4,0,0,1,28.228-5.88L184.55-93.191a20.44,20.44,0,0,1,5.916,28.244Zm.473.31,30.664-46.9a20.986,20.986,0,0,0-6.08-29.027L122.977-134.2a20.943,20.943,0,0,0-29.01,6.043L63.3-81.257A38.869,38.869,0,0,0,74.567-27.485L106.535-6.545A38.791,38.791,0,0,0,160.275-17.739Z" transform="translate(-7.574 -9.43)" fill="#f0f0f1"/>
        <path id="Path_264814" data-name="Path 264814" d="M149.031-13.735A47.818,47.818,0,0,1,82.862.048L66.878-10.422A47.914,47.914,0,0,1,53.011-76.63L81.4-120.048a15.013,15.013,0,0,1,20.774-4.327l70.893,46.436a15.043,15.043,0,0,1,4.354,20.786Zm.473.31,28.388-43.418a15.592,15.592,0,0,0-4.518-21.569l-70.9-46.443a15.56,15.56,0,0,0-21.555,4.49L52.528-76.946A48.427,48.427,0,0,0,66.56-9.955L82.553.521A48.333,48.333,0,0,0,149.5-13.425Z" transform="translate(-3.785 -12.572)" fill="#f0f0f1"/>
        <path id="Path_264815" data-name="Path 264815" d="M138.266-9.422A57.369,57.369,0,0,1,58.88,7.114,57.484,57.484,0,0,1,42.242-72.321l26.113-39.938a9.62,9.62,0,0,1,13.312-2.773L161.59-62.681a9.639,9.639,0,0,1,2.79,13.32Zm.473.31,26.113-39.939a10.2,10.2,0,0,0-2.954-14.1L81.976-115.505a10.176,10.176,0,0,0-14.094,2.936L41.769-72.631a57.986,57.986,0,0,0,16.8,80.217A57.87,57.87,0,0,0,138.739-9.112Z" transform="translate(0 -15.717)" fill="#f0f0f1" opacity="0.1"/>
      </g>
    </g>
  </g>
</svg>
