<svg xmlns="http://www.w3.org/2000/svg" width="52" height="53.954" viewBox="0 0 52 53.954">
  <g id="Group_239449" data-name="Group 239449" transform="translate(-1744 -145.492)">
    <g id="Group_239440" data-name="Group 239440" transform="translate(145 140.41)">
      <circle id="Ellipse_15574" data-name="Ellipse 15574" cx="26" cy="26" r="26" transform="translate(1599 7.035)" fill="#f7c758"/>
      <g id="Path_264466" data-name="Path 264466" transform="translate(1053.677 -796.288)" fill="#f37f73">
        <path d="M 569.25 832.6114501953125 L 569.25 829.99169921875 L 569.25 803.4397583007812 L 569.25 802.5296020507812 L 570.1561279296875 802.4441528320312 C 570.6837768554688 802.3944091796875 571.2493286132812 802.3692016601562 571.8369750976562 802.3692016601562 C 573.5220947265625 802.3692016601562 576.194091796875 802.5787353515625 579.3536987304688 803.5769653320312 C 582.6200561523438 804.6089477539062 585.6743774414062 806.24853515625 588.4318237304688 808.4502563476562 L 589.417724609375 809.2374267578125 L 588.4721069335938 809.9815063476562 C 588.0440673828125 810.4412841796875 584.8744506835938 814.2210083007812 581.80712890625 817.87890625 C 577.4649047851562 823.0570678710938 572.5433349609375 828.9261474609375 570.9956665039062 830.6580200195312 L 569.25 832.6114501953125 Z" stroke="none"/>
        <path d="M 571.8369750976562 803.3692016601562 C 571.25048828125 803.369140625 570.7189331054688 803.3955078125 570.25 803.4397583007812 L 570.25 829.99169921875 C 573.066162109375 826.8403930664062 587.4546508789062 809.5095825195312 587.807861328125 809.231689453125 C 581.896728515625 804.5119018554688 575.6948852539062 803.3693237304688 571.8369750976562 803.3692016601562 M 571.8363037109375 801.3692016601562 L 571.8363037109375 803.3692016601562 L 571.8365478515625 801.3692016601562 C 573.5925903320312 801.3692626953125 576.3739624023438 801.5869140625 579.6549682617188 802.6234741210938 C 583.0390625 803.692626953125 586.201904296875 805.3900756835938 589.0557861328125 807.6687622070312 L 591.0276489257812 809.2432250976562 L 589.156494140625 810.7154541015625 C 588.5794067382812 811.359130859375 585.5281982421875 814.997802734375 582.5733642578125 818.521484375 C 578.2264404296875 823.7052612304688 573.2994995117188 829.5807495117188 571.7412719726562 831.3244018554688 L 568.25 835.2311401367188 L 568.25 801.6195068359375 L 570.062255859375 801.4486083984375 C 570.6210327148438 801.3958740234375 571.2178955078125 801.3692016601562 571.8363037109375 801.3692016601562 Z" stroke="none" fill="#f5f5f5"/>
      </g>
    </g>
  </g>
</svg>
