<svg xmlns="http://www.w3.org/2000/svg" xmlns:xlink="http://www.w3.org/1999/xlink" width="516" height="165" viewBox="0 0 516 165">
  <defs>
    <clipPath id="clip-path">
      <rect id="Rectangle_20557" data-name="Rectangle 20557" width="516" height="165" transform="translate(320 106)" fill="#fff"/>
    </clipPath>
    <clipPath id="clip-path-2">
      <rect id="Rectangle_20580" data-name="Rectangle 20580" width="140" height="95" transform="translate(696 106)" fill="rgba(255,255,255,0)"/>
    </clipPath>
  </defs>
  <g id="Mask_Group_11" data-name="Mask Group 11" transform="translate(-320 -106)" clip-path="url(#clip-path)">
    <g id="Mask_Group_14" data-name="Mask Group 14" clip-path="url(#clip-path-2)">
      <g id="Group_238392" data-name="Group 238392" transform="translate(682.883 112.633)" opacity="0.3">
        <path id="Path_264795" data-name="Path 264795" d="M40.033,62.676a71.845,71.845,0,0,0,101.381,7.707,71.509,71.509,0,0,0,24.847-49.14A71.528,71.528,0,0,0,149.113-31.09,71.844,71.844,0,0,0,47.732-38.8a71.511,71.511,0,0,0-24.848,49.14A71.531,71.531,0,0,0,40.033,62.676Zm-.353.3a72.386,72.386,0,1,1,102.037,7.756A72.47,72.47,0,0,1,39.68,62.979Z" fill="#cdced0"/>
        <path id="Path_264796" data-name="Path 264796" d="M51.991,56.6a64.1,64.1,0,0,0,90.442,6.875A63.8,63.8,0,0,0,164.6,19.634a63.817,63.817,0,0,0-15.3-46.686A64.1,64.1,0,0,0,58.86-33.927,63.8,63.8,0,0,0,36.695,9.911,63.811,63.811,0,0,0,51.991,56.6Zm-.353.3a64.627,64.627,0,1,1,91.1,6.925A64.7,64.7,0,0,1,51.638,56.9Z" transform="translate(5.39 2.628)" fill="#cdced0"/>
        <path id="Path_264797" data-name="Path 264797" d="M63.947,50.518a56.348,56.348,0,0,0,79.51,6.044,56.079,56.079,0,0,0,19.487-38.539A56.089,56.089,0,0,0,149.5-23.02a56.348,56.348,0,0,0-79.51-6.044A56.075,56.075,0,0,0,50.5,9.475,56.1,56.1,0,0,0,63.947,50.518Zm-.353.3a56.871,56.871,0,1,1,80.166,6.094A56.938,56.938,0,0,1,63.594,50.821Z" transform="translate(10.779 5.253)" fill="#cdced0"/>
        <path id="Path_264798" data-name="Path 264798" d="M75.906,44.44a48.646,48.646,0,1,0,5.208-68.634A48.652,48.652,0,0,0,75.906,44.44Zm-.353.3a49.111,49.111,0,1,1,69.227,5.262A49.165,49.165,0,0,1,75.553,44.743Z" transform="translate(16.169 7.881)" fill="#cdced0"/>
        <path id="Path_264799" data-name="Path 264799" d="M87.864,38.361a40.886,40.886,0,1,0,4.377-57.685A40.891,40.891,0,0,0,87.864,38.361Zm-.353.3A41.351,41.351,0,1,1,145.8,43.092,41.4,41.4,0,0,1,87.511,38.664Z" transform="translate(21.559 10.51)" fill="#cdced0"/>
        <path id="Path_264800" data-name="Path 264800" d="M99.823,32.279a33.13,33.13,0,1,0,3.547-46.743A33.136,33.136,0,0,0,99.823,32.279Zm-.353.3a33.6,33.6,0,1,1,47.354,3.6A33.634,33.634,0,0,1,99.47,32.583Z" transform="translate(26.949 13.134)" fill="#cdced0"/>
        <path id="Path_264801" data-name="Path 264801" d="M111.781,26.2A25.37,25.37,0,1,0,114.5-9.594,25.374,25.374,0,0,0,111.781,26.2Zm-.353.3a25.836,25.836,0,1,1,36.419,2.768A25.868,25.868,0,0,1,111.428,26.5Z" transform="translate(32.34 15.762)" fill="#cdced0"/>
        <path id="Path_264802" data-name="Path 264802" d="M123.739,20.121a17.61,17.61,0,1,0,1.886-24.846A17.613,17.613,0,0,0,123.739,20.121Zm-.353.3a18.076,18.076,0,1,1,25.481,1.937A18.1,18.1,0,0,1,123.386,20.425Z" transform="translate(37.73 18.391)" fill="#cdced0"/>
        <path id="Path_264803" data-name="Path 264803" d="M135.7,14.042a9.855,9.855,0,1,0,1.056-13.9A9.858,9.858,0,0,0,135.7,14.042Zm-.353.3a10.32,10.32,0,1,1,14.548,1.106A10.333,10.333,0,0,1,135.342,14.346Z" transform="translate(43.118 21.016)" fill="#cdced0"/>
      </g>
    </g>
  </g>
</svg>
