<svg xmlns="http://www.w3.org/2000/svg" width="206.518" height="206.514" viewBox="0 0 206.518 206.514">
  <g id="Group_239452" data-name="Group 239452" transform="translate(-1010.881 -190.853)">
    <path id="Ellipse_1444" data-name="Ellipse 1444" d="M83.829-.5c.334,0,.673,0,1.007.006l-.012,1c-.33,0-.665-.006-1-.006Zm-.779,0,.009,1c-.33,0-.664.008-.993.015l-.021-1C82.378-.488,82.716-.493,83.05-.5Zm7.814.286c.333.027.67.057,1,.089l-.094,1c-.328-.031-.661-.061-.99-.088ZM76.02-.143l.091,1c-.328.03-.661.063-.989.1l-.1-.995C75.35-.08,75.687-.113,76.02-.143Zm21.829.8c.329.055.663.113.991.172l-.177.984c-.325-.058-.654-.115-.979-.17ZM69.043.792l.174.985c-.325.057-.654.118-.978.179L68.053.973C68.381.911,68.714.85,69.043.792Zm35.695,1.32c.323.083.651.168.973.255l-.259.966c-.319-.085-.642-.17-.962-.251Zm-42.57.2.256.967c-.319.084-.641.172-.959.26L61.2,2.572C61.518,2.482,61.845,2.394,62.167,2.308Zm49.312,1.83c.315.109.634.222.948.335l-.339.941c-.31-.112-.626-.223-.937-.331ZM55.445,4.4l.337.942c-.311.111-.625.225-.934.34L54.5,4.741C54.812,4.624,55.13,4.509,55.445,4.4Zm62.583,2.327c.3.135.613.275.917.414l-.417.909c-.3-.137-.6-.275-.906-.409ZM48.92,7.042l.414.91c-.3.137-.6.277-.9.417l-.425-.905C48.31,7.322,48.617,7.18,48.92,7.042Zm75.416,2.806c.293.161.588.325.879.489l-.491.871c-.287-.162-.58-.325-.869-.483Zm-81.695.377.489.872c-.288.161-.578.327-.864.491l-.5-.866C42.056,10.556,42.35,10.389,42.641,10.225Zm87.72,3.264c.278.184.559.373.835.561l-.562.827c-.273-.185-.55-.372-.825-.554Zm-93.711.433.56.828c-.273.185-.549.374-.82.562l-.57-.822C36.095,14.3,36.374,14.109,36.65,13.922Zm99.411,3.7c.262.207.526.418.786.628l-.629.777c-.256-.208-.518-.416-.776-.621ZM30.988,18.1l.627.779c-.257.207-.516.418-.771.628l-.636-.771C30.465,18.528,30.728,18.314,30.988,18.1Zm110.412,4.1c.244.228.49.46.731.691l-.691.722c-.238-.228-.481-.458-.722-.683Zm-115.707.534.689.724c-.239.227-.48.459-.716.69l-.7-.716C25.207,23.208,25.45,22.973,25.692,22.743Zm120.646,4.482c.224.247.45.5.671.749l-.749.663c-.219-.247-.442-.5-.663-.741ZM20.8,27.8l.747.665c-.219.246-.44.5-.656.747l-.755-.656C20.354,28.308,20.578,28.053,20.8,27.8Zm130.045,4.83c.2.265.407.535.606.8l-.8.6c-.2-.264-.4-.531-.6-.793Zm-134.5.62.8.6c-.2.264-.4.532-.592.8l-.807-.591C15.941,33.792,16.143,33.52,16.343,33.254ZM154.886,38.4c.18.281.361.567.538.85l-.848.529c-.175-.28-.353-.562-.531-.84Zm-142.531.657.847.532c-.175.279-.352.564-.524.845l-.853-.522C12,39.625,12.178,39.337,12.355,39.055Zm146.078,5.424c.156.3.312.6.465.892l-.89.457c-.151-.293-.305-.59-.459-.881ZM8.864,45.168l.888.459c-.151.293-.3.591-.451.886l-.894-.448C8.558,45.766,8.711,45.465,8.864,45.168Zm152.594,5.667c.131.307.261.62.388.928l-.925.381c-.126-.305-.255-.614-.384-.917ZM5.9,51.552l.924.383c-.126.3-.253.614-.375.92l-.928-.372C5.642,52.174,5.77,51.861,5.9,51.552Zm158.043,5.871c.1.317.208.639.309.957l-.953.3c-.1-.314-.2-.632-.305-.945Zm-160.464.74.953.3c-.1.314-.2.633-.3.949l-.956-.293C3.274,58.8,3.375,58.481,3.477,58.163ZM165.86,64.2c.077.325.154.655.228.981l-.975.22c-.073-.322-.148-.648-.225-.969ZM1.62,64.954l.975.223c-.074.321-.146.648-.216.97L1.4,65.936C1.473,65.61,1.546,65.279,1.62,64.954ZM167.2,71.107c.05.33.1.665.144,1l-.99.138c-.045-.327-.093-.657-.143-.983ZM.341,71.876l.99.14c-.046.326-.091.658-.134.985l-.992-.129C.248,72.542.294,72.207.341,71.876Zm167.626,6.229c.022.333.043.671.061,1l-1,.055c-.018-.329-.039-.663-.061-.992ZM-.357,78.881l1,.058c-.019.329-.036.664-.052.993l-1-.046C-.394,79.553-.377,79.214-.357,78.881Zm167.5,6.248,1,.015c-.005.334-.012.672-.021,1l-1-.027C167.136,85.793,167.143,85.459,167.148,85.129ZM.525,85.9c.008.33.018.665.03,1l-1,.036c-.012-.334-.022-.673-.03-1.007Zm166.23,6.177,1,.1c-.033.333-.068.67-.1,1l-.994-.11C166.688,92.735,166.723,92.4,166.755,92.074ZM.981,92.839c.035.328.073.66.112.987L.1,93.945c-.04-.331-.078-.667-.113-1Zm164.805,6.124.984.18c-.06.328-.123.66-.187.988l-.981-.192C165.665,99.616,165.727,99.287,165.787,98.963ZM2.013,99.718c.063.324.128.652.194.975l-.98.2c-.067-.327-.133-.659-.2-.987Zm162.232,6.028.965.262c-.088.322-.178.648-.27.97l-.962-.274C164.069,106.386,164.159,106.064,164.245,105.746Zm-160.628.741c.089.317.182.639.275.955l-.959.283c-.094-.32-.188-.645-.279-.967Zm158.522,5.889.939.343c-.114.313-.232.631-.35.943l-.935-.354C161.91,113,162.027,112.685,162.14,112.376ZM5.785,113.1c.116.309.235.621.355.929l-.932.362c-.121-.311-.242-.627-.359-.94Zm153.7,5.708.907.42c-.14.3-.284.609-.428.911l-.9-.431C159.2,119.407,159.346,119.1,159.484,118.8ZM8.5,119.5c.141.3.286.6.431.9l-.9.439c-.147-.3-.294-.6-.437-.906Zm147.8,5.488.869.495c-.165.29-.334.583-.5.871l-.863-.505C155.969,125.565,156.136,125.275,156.3,124.989Zm-144.557.666c.166.285.336.573.5.856l-.858.513c-.171-.287-.343-.578-.511-.867Zm140.867,5.23.825.565c-.189.275-.382.553-.574.826l-.818-.575C152.232,131.432,152.422,131.158,152.609,130.885Zm-137.122.632c.189.27.382.543.574.811l-.813.583c-.194-.271-.39-.547-.581-.821Zm132.954,4.937.775.632c-.211.259-.426.52-.64.776l-.767-.641C148.019,136.968,148.232,136.71,148.44,136.455Zm-128.734.593c.211.254.426.51.64.761l-.762.648c-.216-.254-.434-.513-.648-.77Zm124.118,4.611.72.694c-.232.24-.468.483-.7.72l-.712-.7C143.361,142.136,143.595,141.9,143.824,141.659ZM24.37,142.21c.231.235.467.473.7.705l-.705.709c-.237-.235-.475-.475-.709-.714Zm114.422,4.253.66.751c-.251.22-.506.442-.76.659l-.651-.759C138.291,146.9,138.544,146.68,138.792,146.462Zm-109.346.5c.25.215.5.432.757.645l-.644.765c-.255-.215-.513-.434-.766-.652Zm103.933,3.865.6.8c-.268.2-.541.4-.812.594l-.586-.811C132.844,151.225,133.114,151.028,133.379,150.832Zm-98.48.455c.267.194.539.389.808.58l-.578.816c-.272-.193-.547-.39-.817-.586Zm92.722,3.45.526.85c-.284.176-.573.352-.858.524l-.516-.857C127.055,155.084,127.341,154.91,127.621,154.736Zm-86.929.4c.282.171.569.343.853.51l-.508.861c-.287-.17-.578-.343-.863-.516Zm80.867,3.009.453.891c-.3.151-.6.3-.9.451l-.443-.9C120.965,158.446,121.264,158.3,121.559,158.147Zm-74.773.345c.3.147.6.294.893.437l-.434.9c-.3-.145-.6-.294-.9-.442Zm68.445,2.546.377.926c-.309.126-.623.252-.934.374l-.366-.931C114.616,161.286,114.926,161.162,115.231,161.038Zm-62.092.286c.307.122.619.243.927.361l-.357.934c-.312-.119-.627-.242-.938-.365Zm55.546,2.063.3.955c-.319.1-.643.2-.963.294l-.286-.958C108.05,163.584,108.37,163.486,108.685,163.387Zm-48.977.226c.315.1.636.19.953.281l-.278.961c-.32-.093-.645-.188-.964-.285Zm42.255,1.566.217.976c-.326.072-.656.144-.983.212l-.2-.979C101.315,165.321,101.641,165.25,101.963,165.179Zm-35.518.163c.323.069.651.136.974.2l-.2.981c-.328-.065-.659-.134-.986-.2Zm28.67,1.058.134.991c-.331.045-.667.088-1,.129l-.122-.992C94.456,166.487,94.788,166.444,95.116,166.4Zm-21.811.1c.327.041.659.081.986.118l-.113.994c-.331-.038-.667-.078-1-.12Zm14.883.546.051,1c-.333.017-.671.033-1,.046l-.04-1C87.525,167.078,87.859,167.062,88.188,167.045Zm-7.952.036c.329.014.664.026.994.036l-.031,1c-.334-.01-.672-.023-1.005-.037Z" transform="matrix(0.966, 0.259, -0.259, 0.966, 1054.852, 191.459)" fill="#a6a6a6"/>
    <ellipse id="Ellipse_1445" data-name="Ellipse 1445" cx="80.221" cy="80.221" rx="80.221" ry="80.221" transform="matrix(0.966, 0.259, -0.259, 0.966, 1057.003, 196.107)" fill="#f8f8f8"/>
    <g id="Group_53385" data-name="Group 53385" transform="matrix(0.966, 0.259, -0.259, 0.966, 1065.948, 211.447)">
      <ellipse id="Ellipse_1446" data-name="Ellipse 1446" cx="67.665" cy="67.665" rx="67.665" ry="67.665" transform="translate(0 0)" fill="#fff"/>
    </g>
  </g>
</svg>
