<svg xmlns="http://www.w3.org/2000/svg" xmlns:xlink="http://www.w3.org/1999/xlink" width="204.749" height="30" viewBox="0 0 204.749 30">
  <defs>
    <clipPath id="clip-path">
      <rect id="Rectangle_20426" data-name="Rectangle 20426" width="52.082" height="30" fill="#fff"/>
    </clipPath>
  </defs>
  <g id="Group_238195" data-name="Group 238195" transform="translate(1331.881 -514.898)">
    <g id="Group_192847" data-name="Group 192847" transform="translate(-1331.881 514.898)">
      <g id="Group_192846" data-name="Group 192846" clip-path="url(#clip-path)">
        <path id="Path_121276" data-name="Path 121276" d="M45.386,30a6.924,6.924,0,0,1-6.562-4.795c-1.029-2.843-1.638-5.835-2.465-8.752-.727-2.567-1.488-5.125-2.264-7.677a5.365,5.365,0,0,0-.661-1.361c-.632-.962-1.293-.982-1.9.016a8.459,8.459,0,0,0-.968,2.276c-.965,3.788-1.71,7.641-2.86,11.371a19.456,19.456,0,0,1-2.935,5.731c-2.407,3.247-6.114,3.424-8.738.367a28.274,28.274,0,0,1-3.511-5.886c-.86-1.723-1.357-3.623-2.159-5.38a7.279,7.279,0,0,0-1.527-1.659c-.5.555-1.23,1.031-1.445,1.679C6.7,18.017,6.179,20.164,5.627,22.3a2.776,2.776,0,0,1-3.3,2.218,2.681,2.681,0,0,1-2.289-3.1c.6-3.648,1.453-7.233,3.608-10.345C5.7,8.109,8.107,7.142,10.84,8.512a7.828,7.828,0,0,1,3.166,2.947c1.533,2.717,2.711,5.633,4.045,8.462a18.831,18.831,0,0,0,1.2,2.327c.683,1.042,1.451,1.092,1.987-.009a29.986,29.986,0,0,0,1.547-4.4c1.3-4.263,2.532-8.548,3.878-12.8A9.7,9.7,0,0,1,28.128,2.4a5.159,5.159,0,0,1,8.248-.619A13.149,13.149,0,0,1,39.2,6.592c1.466,4.5,2.614,9.106,3.923,13.659a15.34,15.34,0,0,0,1.04,2.7c.884,1.742,1.6,1.845,3.076.565,1.809-1.566,4.052-1.251,4.716.815A3.289,3.289,0,0,1,51.6,27a7.659,7.659,0,0,1-6.21,3" transform="translate(0 0)" fill="#0968ac"/>
      </g>
    </g>
    <path id="Path_121277" data-name="Path 121277" d="M2.79-17.568v-18.75h4.8v2.155a5.745,5.745,0,0,1,2.419-1.966,7.675,7.675,0,0,1,3.1-.643,8.94,8.94,0,0,1,3.95.888A6.334,6.334,0,0,1,19.914-33.1a6.78,6.78,0,0,1,2.627-2.7,7.283,7.283,0,0,1,3.686-.964,8.549,8.549,0,0,1,3.912.888,6.524,6.524,0,0,1,2.778,2.7,9.151,9.151,0,0,1,1.021,4.536v11.076h-4.8v-10.4a5.155,5.155,0,0,0-1.021-3.364,3.817,3.817,0,0,0-3.138-1.247,3.885,3.885,0,0,0-3.138,1.247,5.03,5.03,0,0,0-1.058,3.364v10.4h-4.8v-10.4a4.957,4.957,0,0,0-1.077-3.383,3.879,3.879,0,0,0-3.081-1.229A4.437,4.437,0,0,0,8.857-31.5a4.407,4.407,0,0,0-1.266,3.534v10.4ZM46-17.114A9.677,9.677,0,0,1,40.913-18.4a8.8,8.8,0,0,1-3.308-3.516,10.643,10.643,0,0,1-1.172-5.028,10.557,10.557,0,0,1,1.21-5.179,8.7,8.7,0,0,1,3.364-3.421A9.9,9.9,0,0,1,46-36.771a9.627,9.627,0,0,1,4.9,1.21,8.688,8.688,0,0,1,3.289,3.327,9.776,9.776,0,0,1,1.191,4.876q0,.491-.038.964t-.113.888H41.31a5.468,5.468,0,0,0,.7,2.325,4.079,4.079,0,0,0,1.588,1.55,4.686,4.686,0,0,0,2.287.548,4.43,4.43,0,0,0,2.287-.567A3.928,3.928,0,0,0,49.7-23.39h5.179a9.377,9.377,0,0,1-1.7,3.1,8.6,8.6,0,0,1-2.967,2.306A9.572,9.572,0,0,1,46-17.114ZM41.348-28.72h9.035A3.755,3.755,0,0,0,49-31.706a4.837,4.837,0,0,0-3.156-1.1,4.779,4.779,0,0,0-2.873.964A4.4,4.4,0,0,0,41.348-28.72ZM64.974-17.568a6.329,6.329,0,0,1-4.555-1.474,5.872,5.872,0,0,1-1.531-4.423v-8.808H56.468v-4.045h2.419v-4.574h4.839v4.574H68v4.045H63.726v8.846a1.606,1.606,0,0,0,.567,1.436,2.611,2.611,0,0,0,1.474.378H68v4.045Zm14.554.454a10.215,10.215,0,0,1-5.047-1.229A8.781,8.781,0,0,1,71.022-21.8a10.353,10.353,0,0,1-1.247-5.141,9.972,9.972,0,0,1,1.342-5.273A9,9,0,0,1,74.707-35.6a10.594,10.594,0,0,1,4.971-1.172,10.323,10.323,0,0,1,5.065,1.229,9.217,9.217,0,0,1,3.534,3.421,9.943,9.943,0,0,1,1.3,5.179A9.96,9.96,0,0,1,88.3-21.877a9.237,9.237,0,0,1-3.534,3.5A10.492,10.492,0,0,1,79.527-17.114Zm.076-4.2a4.488,4.488,0,0,0,2.627-.775,5.362,5.362,0,0,0,1.758-2.079,6.368,6.368,0,0,0,.643-2.854,6.1,6.1,0,0,0-.7-3.024,4.818,4.818,0,0,0-1.833-1.89,4.973,4.973,0,0,0-2.495-.643,4.676,4.676,0,0,0-2.589.718,4.853,4.853,0,0,0-1.739,1.985,6.551,6.551,0,0,0-.624,2.93,6.352,6.352,0,0,0,.662,2.949,4.908,4.908,0,0,0,1.8,1.985A4.661,4.661,0,0,0,79.6-21.31Zm12.588,3.742V-44.029h4.839v26.461Zm10.887-21.169a3.018,3.018,0,0,1-2.211-.926,3.018,3.018,0,0,1-.926-2.211,3,3,0,0,1,.926-2.23,3.05,3.05,0,0,1,2.211-.907,3.032,3.032,0,0,1,2.23.907,3.032,3.032,0,0,1,.907,2.23,3.05,3.05,0,0,1-.907,2.211A3,3,0,0,1,103.077-38.737Zm-2.419,21.169v-18.75H105.5v18.75Zm15.725.454a7.756,7.756,0,0,1-4.12-1.04,6.854,6.854,0,0,1-2.608-2.873,9.3,9.3,0,0,1-.907-4.177V-36.318h4.8v10.4a5.215,5.215,0,0,0,1.077,3.4,3.833,3.833,0,0,0,3.156,1.323A3.921,3.921,0,0,0,121-22.482a5.244,5.244,0,0,0,1.058-3.44v-10.4h4.839v18.75h-4.839v-2.192a6.067,6.067,0,0,1-2.476,1.966A7.782,7.782,0,0,1,116.384-17.114Zm21.585,0A10.179,10.179,0,0,1,134-17.889a7.769,7.769,0,0,1-3.043-2.211,5.654,5.654,0,0,1-1.3-3.364h4.839a2.694,2.694,0,0,0,1.191,1.89,3.912,3.912,0,0,0,2.249.68,4.305,4.305,0,0,0,1.985-.473,1.569,1.569,0,0,0,.926-1.493,1.423,1.423,0,0,0-.68-1.247,5.74,5.74,0,0,0-1.588-.718q-.907-.265-1.663-.454a24.605,24.605,0,0,1-3.44-1.077,5.953,5.953,0,0,1-2.457-1.739,4.559,4.559,0,0,1-.907-2.967,4.773,4.773,0,0,1,1.04-3.1,6.43,6.43,0,0,1,2.76-1.947,10.285,10.285,0,0,1,3.723-.662,8.675,8.675,0,0,1,5.292,1.588,5.935,5.935,0,0,1,2.344,4.687H140.69a2.389,2.389,0,0,0-1-1.833,3.754,3.754,0,0,0-2.211-.624,4.52,4.52,0,0,0-1.89.378,1.428,1.428,0,0,0-.832,1.436,1.437,1.437,0,0,0,.68,1.229,5.7,5.7,0,0,0,1.625.756q.945.284,1.663.473a22.741,22.741,0,0,1,3.459,1.134,5.937,5.937,0,0,1,2.363,1.739,4.779,4.779,0,0,1,.907,2.949,4.829,4.829,0,0,1-1.04,3.138,6.445,6.445,0,0,1-2.741,1.947A10.134,10.134,0,0,1,137.968-17.114Z" transform="translate(-1272.585 560.575)" fill="#0f0f0f"/>
  </g>
</svg>
